<svg width="71" height="87" viewBox="0 0 71 87" fill="none" xmlns="http://www.w3.org/2000/svg">
<path d="M68.4797 29.7638C62.6879 33.325 59.1106 39.43 59.1106 46.2134C59.1106 53.8446 63.71 60.7976 70.6942 63.6805C69.3314 68.0896 67.2873 72.1596 64.732 75.8905C60.9844 81.1476 57.0664 86.5742 51.2746 86.5742C45.4828 86.5742 43.7793 83.1826 36.9654 83.1826C30.3219 83.1826 27.937 86.7438 22.4859 86.7438C17.0347 86.7438 13.2871 81.8259 9.02842 75.7209C3.40695 67.2417 0.170347 57.4059 0 47.0613C0 30.2725 10.9022 21.2846 21.8045 21.2846C27.5963 21.2846 32.366 25.0154 35.9433 25.0154C39.3503 25.0154 44.8014 21.115 51.2746 21.115C58.0885 20.9454 64.5617 24.1675 68.4797 29.7638ZM48.2083 13.9925C51.1042 10.6008 52.6374 6.36123 52.8077 1.95206C52.8077 1.44331 52.8077 0.764976 52.6374 0.256226C47.6973 0.764976 43.0979 3.13915 39.8613 6.86998C36.9654 10.0921 35.2619 14.1621 35.0916 18.5712C35.0916 19.08 35.0916 19.5887 35.2619 20.0975C35.6026 20.0975 36.1137 20.2671 36.4544 20.2671C41.0537 19.9279 45.3124 17.5537 48.2083 13.9925Z" fill="black"/>
</svg>
