<svg width="170" height="24" viewBox="0 0 170 24" fill="none" xmlns="http://www.w3.org/2000/svg">
<path d="M17.01 1.94V6.05H11.43V23H6.3V6.05H0.72V1.94H17.01ZM24.7146 9.05C25.3146 8.13 26.0646 7.41 26.9646 6.89C27.8646 6.35 28.8646 6.08 29.9646 6.08V11.51H28.5546C27.2746 11.51 26.3146 11.79 25.6746 12.35C25.0346 12.89 24.7146 13.85 24.7146 15.23V23H19.5846V6.26H24.7146V9.05ZM48.1966 14.36C48.1966 14.84 48.1666 15.34 48.1066 15.86H36.4966C36.5766 16.9 36.9066 17.7 37.4866 18.26C38.0866 18.8 38.8166 19.07 39.6766 19.07C40.9566 19.07 41.8466 18.53 42.3466 17.45H47.8066C47.5266 18.55 47.0166 19.54 46.2766 20.42C45.5566 21.3 44.6466 21.99 43.5466 22.49C42.4466 22.99 41.2166 23.24 39.8566 23.24C38.2166 23.24 36.7566 22.89 35.4766 22.19C34.1966 21.49 33.1966 20.49 32.4766 19.19C31.7566 17.89 31.3966 16.37 31.3966 14.63C31.3966 12.89 31.7466 11.37 32.4466 10.07C33.1666 8.77 34.1666 7.77 35.4466 7.07C36.7266 6.37 38.1966 6.02 39.8566 6.02C41.4766 6.02 42.9166 6.36 44.1766 7.04C45.4366 7.72 46.4166 8.69 47.1166 9.95C47.8366 11.21 48.1966 12.68 48.1966 14.36ZM42.9466 13.01C42.9466 12.13 42.6466 11.43 42.0466 10.91C41.4466 10.39 40.6966 10.13 39.7966 10.13C38.9366 10.13 38.2066 10.38 37.6066 10.88C37.0266 11.38 36.6666 12.09 36.5266 13.01H42.9466ZM61.103 6.08C63.063 6.08 64.623 6.72 65.783 8C66.963 9.26 67.553 11 67.553 13.22V23H62.453V13.91C62.453 12.79 62.163 11.92 61.583 11.3C61.003 10.68 60.223 10.37 59.243 10.37C58.263 10.37 57.483 10.68 56.903 11.3C56.323 11.92 56.033 12.79 56.033 13.91V23H50.903V6.26H56.033V8.48C56.553 7.74 57.253 7.16 58.133 6.74C59.013 6.3 60.003 6.08 61.103 6.08ZM70.0978 14.6C70.0978 12.88 70.4178 11.37 71.0578 10.07C71.7178 8.77 72.6078 7.77 73.7278 7.07C74.8478 6.37 76.0978 6.02 77.4778 6.02C78.5778 6.02 79.5778 6.25 80.4778 6.71C81.3978 7.17 82.1178 7.79 82.6378 8.57V0.8H87.7678V23H82.6378V20.6C82.1578 21.4 81.4678 22.04 80.5678 22.52C79.6878 23 78.6578 23.24 77.4778 23.24C76.0978 23.24 74.8478 22.89 73.7278 22.19C72.6078 21.47 71.7178 20.46 71.0578 19.16C70.4178 17.84 70.0978 16.32 70.0978 14.6ZM82.6378 14.63C82.6378 13.35 82.2778 12.34 81.5578 11.6C80.8578 10.86 79.9978 10.49 78.9778 10.49C77.9578 10.49 77.0878 10.86 76.3678 11.6C75.6678 12.32 75.3178 13.32 75.3178 14.6C75.3178 15.88 75.6678 16.9 76.3678 17.66C77.0878 18.4 77.9578 18.77 78.9778 18.77C79.9978 18.77 80.8578 18.4 81.5578 17.66C82.2778 16.92 82.6378 15.91 82.6378 14.63ZM99.0991 23.21C97.5591 23.21 96.1791 22.96 94.9591 22.46C93.7391 21.96 92.7591 21.22 92.0191 20.24C91.2991 19.26 90.9191 18.08 90.8791 16.7H96.3391C96.4191 17.48 96.6891 18.08 97.1491 18.5C97.6091 18.9 98.2091 19.1 98.9491 19.1C99.7091 19.1 100.309 18.93 100.749 18.59C101.189 18.23 101.409 17.74 101.409 17.12C101.409 16.6 101.229 16.17 100.869 15.83C100.529 15.49 100.099 15.21 99.5791 14.99C99.0791 14.77 98.3591 14.52 97.4191 14.24C96.0591 13.82 94.9491 13.4 94.0891 12.98C93.2291 12.56 92.4891 11.94 91.8691 11.12C91.2491 10.3 90.9391 9.23 90.9391 7.91C90.9391 5.95 91.6491 4.42 93.0691 3.32C94.4891 2.2 96.3391 1.64 98.6191 1.64C100.939 1.64 102.809 2.2 104.229 3.32C105.649 4.42 106.409 5.96 106.509 7.94H100.959C100.919 7.26 100.669 6.73 100.209 6.35C99.7491 5.95 99.1591 5.75 98.4391 5.75C97.8191 5.75 97.3191 5.92 96.9391 6.26C96.5591 6.58 96.3691 7.05 96.3691 7.67C96.3691 8.35 96.6891 8.88 97.3291 9.26C97.9691 9.64 98.9691 10.05 100.329 10.49C101.689 10.95 102.789 11.39 103.629 11.81C104.489 12.23 105.229 12.84 105.849 13.64C106.469 14.44 106.779 15.47 106.779 16.73C106.779 17.93 106.469 19.02 105.849 20C105.249 20.98 104.369 21.76 103.209 22.34C102.049 22.92 100.679 23.21 99.0991 23.21ZM119.266 18.65V23H116.656C114.796 23 113.346 22.55 112.306 21.65C111.266 20.73 110.746 19.24 110.746 17.18V10.52H108.706V6.26H110.746V2.18H115.876V6.26H119.236V10.52H115.876V17.24C115.876 17.74 115.996 18.1 116.236 18.32C116.476 18.54 116.876 18.65 117.436 18.65H119.266ZM129.744 23.24C128.104 23.24 126.624 22.89 125.304 22.19C124.004 21.49 122.974 20.49 122.214 19.19C121.474 17.89 121.104 16.37 121.104 14.63C121.104 12.91 121.484 11.4 122.244 10.1C123.004 8.78 124.044 7.77 125.364 7.07C126.684 6.37 128.164 6.02 129.804 6.02C131.444 6.02 132.924 6.37 134.244 7.07C135.564 7.77 136.604 8.78 137.364 10.1C138.124 11.4 138.504 12.91 138.504 14.63C138.504 16.35 138.114 17.87 137.334 19.19C136.574 20.49 135.524 21.49 134.184 22.19C132.864 22.89 131.384 23.24 129.744 23.24ZM129.744 18.8C130.724 18.8 131.554 18.44 132.234 17.72C132.934 17 133.284 15.97 133.284 14.63C133.284 13.29 132.944 12.26 132.264 11.54C131.604 10.82 130.784 10.46 129.804 10.46C128.804 10.46 127.974 10.82 127.314 11.54C126.654 12.24 126.324 13.27 126.324 14.63C126.324 15.97 126.644 17 127.284 17.72C127.944 18.44 128.764 18.8 129.744 18.8ZM146.355 9.05C146.955 8.13 147.705 7.41 148.605 6.89C149.505 6.35 150.505 6.08 151.605 6.08V11.51H150.195C148.915 11.51 147.955 11.79 147.315 12.35C146.675 12.89 146.355 13.85 146.355 15.23V23H141.225V6.26H146.355V9.05ZM169.837 14.36C169.837 14.84 169.807 15.34 169.747 15.86H158.137C158.217 16.9 158.547 17.7 159.127 18.26C159.727 18.8 160.457 19.07 161.317 19.07C162.597 19.07 163.487 18.53 163.987 17.45H169.447C169.167 18.55 168.657 19.54 167.917 20.42C167.197 21.3 166.287 21.99 165.187 22.49C164.087 22.99 162.857 23.24 161.497 23.24C159.857 23.24 158.397 22.89 157.117 22.19C155.837 21.49 154.837 20.49 154.117 19.19C153.397 17.89 153.037 16.37 153.037 14.63C153.037 12.89 153.387 11.37 154.087 10.07C154.807 8.77 155.807 7.77 157.087 7.07C158.367 6.37 159.837 6.02 161.497 6.02C163.117 6.02 164.557 6.36 165.817 7.04C167.077 7.72 168.057 8.69 168.757 9.95C169.477 11.21 169.837 12.68 169.837 14.36ZM164.587 13.01C164.587 12.13 164.287 11.43 163.687 10.91C163.087 10.39 162.337 10.13 161.437 10.13C160.577 10.13 159.847 10.38 159.247 10.88C158.667 11.38 158.307 12.09 158.167 13.01H164.587Z" fill="#FF6452"/>
</svg>
